<mxfile host="app.diagrams.net" modified="2021-12-18T16:16:05.643Z" agent="5.0 (X11; Linux x86_64) AppleWebKit/537.36 (KHTML, like Gecko) Chrome/92.0.4515.131 Safari/537.36" etag="QGJNDf8kEw3_6-Ca0giy" version="15.9.6" type="github">
  <diagram id="wPcirxS61-8j0srbPTqO" name="Page-1">
    <mxGraphModel dx="1422" dy="740" grid="1" gridSize="10" guides="1" tooltips="1" connect="1" arrows="1" fold="1" page="1" pageScale="1" pageWidth="827" pageHeight="1169" math="0" shadow="0">
      <root>
        <mxCell id="0" />
        <mxCell id="1" parent="0" />
        <mxCell id="wmtD4q_ZMgyU7GBEmReD-1" value="Entrada Texto" style="rounded=0;whiteSpace=wrap;html=1;" vertex="1" parent="1">
          <mxGeometry x="320" y="40" width="180" height="40" as="geometry" />
        </mxCell>
        <mxCell id="wmtD4q_ZMgyU7GBEmReD-6" value="Entrada Via terminal&amp;nbsp; &amp;nbsp; &amp;nbsp; 0" style="rounded=0;whiteSpace=wrap;html=1;" vertex="1" parent="1">
          <mxGeometry x="140" y="130" width="180" height="40" as="geometry" />
        </mxCell>
        <mxCell id="wmtD4q_ZMgyU7GBEmReD-7" value="Verificar Diretorio" style="rounded=0;whiteSpace=wrap;html=1;" vertex="1" parent="1">
          <mxGeometry x="540" y="130" width="180" height="40" as="geometry" />
        </mxCell>
        <mxCell id="wmtD4q_ZMgyU7GBEmReD-8" value="Diretório Inválido&amp;nbsp; &amp;nbsp; &amp;nbsp; &amp;nbsp;0" style="rounded=0;whiteSpace=wrap;html=1;" vertex="1" parent="1">
          <mxGeometry x="450" y="220" width="180" height="40" as="geometry" />
        </mxCell>
        <mxCell id="wmtD4q_ZMgyU7GBEmReD-9" value="&amp;nbsp;Diretório Conhecido&amp;nbsp; &amp;nbsp; 0" style="rounded=0;whiteSpace=wrap;html=1;" vertex="1" parent="1">
          <mxGeometry x="690" y="220" width="180" height="40" as="geometry" />
        </mxCell>
        <mxCell id="wmtD4q_ZMgyU7GBEmReD-10" value="" style="endArrow=none;html=1;rounded=0;exitX=0.5;exitY=0;exitDx=0;exitDy=0;entryX=0.5;entryY=1;entryDx=0;entryDy=0;" edge="1" parent="1" source="wmtD4q_ZMgyU7GBEmReD-6" target="wmtD4q_ZMgyU7GBEmReD-1">
          <mxGeometry width="50" height="50" relative="1" as="geometry">
            <mxPoint x="520" y="290" as="sourcePoint" />
            <mxPoint x="570" y="240" as="targetPoint" />
          </mxGeometry>
        </mxCell>
        <mxCell id="wmtD4q_ZMgyU7GBEmReD-11" value="" style="endArrow=none;html=1;rounded=0;exitX=0.5;exitY=0;exitDx=0;exitDy=0;entryX=0.5;entryY=1;entryDx=0;entryDy=0;" edge="1" parent="1" source="wmtD4q_ZMgyU7GBEmReD-7" target="wmtD4q_ZMgyU7GBEmReD-1">
          <mxGeometry width="50" height="50" relative="1" as="geometry">
            <mxPoint x="240" y="140" as="sourcePoint" />
            <mxPoint x="420" y="90" as="targetPoint" />
          </mxGeometry>
        </mxCell>
        <mxCell id="wmtD4q_ZMgyU7GBEmReD-12" value="" style="endArrow=none;html=1;rounded=0;exitX=0.5;exitY=1;exitDx=0;exitDy=0;entryX=0.5;entryY=0;entryDx=0;entryDy=0;" edge="1" parent="1" source="wmtD4q_ZMgyU7GBEmReD-7" target="wmtD4q_ZMgyU7GBEmReD-8">
          <mxGeometry width="50" height="50" relative="1" as="geometry">
            <mxPoint x="640" y="140" as="sourcePoint" />
            <mxPoint x="420" y="90" as="targetPoint" />
          </mxGeometry>
        </mxCell>
        <mxCell id="wmtD4q_ZMgyU7GBEmReD-13" value="" style="endArrow=none;html=1;rounded=0;exitX=0.5;exitY=1;exitDx=0;exitDy=0;entryX=0.5;entryY=0;entryDx=0;entryDy=0;" edge="1" parent="1" source="wmtD4q_ZMgyU7GBEmReD-7" target="wmtD4q_ZMgyU7GBEmReD-9">
          <mxGeometry width="50" height="50" relative="1" as="geometry">
            <mxPoint x="640" y="180" as="sourcePoint" />
            <mxPoint x="550" y="230" as="targetPoint" />
          </mxGeometry>
        </mxCell>
        <mxCell id="wmtD4q_ZMgyU7GBEmReD-14" value="(1)&amp;nbsp; &amp;nbsp; &amp;nbsp;Validar entrada&amp;nbsp; &amp;nbsp;*" style="rounded=0;whiteSpace=wrap;html=1;" vertex="1" parent="1">
          <mxGeometry x="690" y="310" width="180" height="40" as="geometry" />
        </mxCell>
        <mxCell id="wmtD4q_ZMgyU7GBEmReD-16" value="" style="endArrow=none;html=1;rounded=0;exitX=0.5;exitY=1;exitDx=0;exitDy=0;entryX=0.5;entryY=0;entryDx=0;entryDy=0;" edge="1" parent="1" source="wmtD4q_ZMgyU7GBEmReD-9" target="wmtD4q_ZMgyU7GBEmReD-14">
          <mxGeometry width="50" height="50" relative="1" as="geometry">
            <mxPoint x="640" y="180" as="sourcePoint" />
            <mxPoint x="790" y="230" as="targetPoint" />
          </mxGeometry>
        </mxCell>
        <mxCell id="wmtD4q_ZMgyU7GBEmReD-17" value="" style="endArrow=none;html=1;exitX=0.5;exitY=1;exitDx=0;exitDy=0;curved=1;entryX=0;entryY=0.5;entryDx=0;entryDy=0;" edge="1" parent="1" source="wmtD4q_ZMgyU7GBEmReD-6" target="wmtD4q_ZMgyU7GBEmReD-14">
          <mxGeometry width="50" height="50" relative="1" as="geometry">
            <mxPoint x="520" y="500" as="sourcePoint" />
            <mxPoint x="660" y="340" as="targetPoint" />
            <Array as="points">
              <mxPoint x="370" y="350" />
            </Array>
          </mxGeometry>
        </mxCell>
        <mxCell id="wmtD4q_ZMgyU7GBEmReD-20" value="Consome a Palavra" style="rounded=0;whiteSpace=wrap;html=1;" vertex="1" parent="1">
          <mxGeometry x="690" y="400" width="180" height="40" as="geometry" />
        </mxCell>
        <mxCell id="wmtD4q_ZMgyU7GBEmReD-21" value="" style="endArrow=none;html=1;rounded=0;exitX=0.5;exitY=0;exitDx=0;exitDy=0;entryX=0.5;entryY=1;entryDx=0;entryDy=0;" edge="1" parent="1" source="wmtD4q_ZMgyU7GBEmReD-20" target="wmtD4q_ZMgyU7GBEmReD-14">
          <mxGeometry width="50" height="50" relative="1" as="geometry">
            <mxPoint x="790" y="270" as="sourcePoint" />
            <mxPoint x="790" y="320" as="targetPoint" />
          </mxGeometry>
        </mxCell>
        <mxCell id="wmtD4q_ZMgyU7GBEmReD-23" value="Palavra =&amp;nbsp;&lt;span style=&quot;color: rgba(0 , 0 , 0 , 0) ; font-family: monospace ; font-size: 0px&quot;&gt;b3CmxGraphModel%3E%3Croot%3E%3CmxCell%20id%3D%220%22%2F%3E%3CmxCell%20id%3D%221%22%20parent%3D%220%22%2F%3E%3CmxCell%20id%3D%222%22%20value%3D%22Consome%20a%20Palavra%22%20style%3D%22rounded%3D0%3BwhiteSpace%3Dwrap%3Bhtml%3D1%3B%22%20vertex%3D%221%22%20parent%3D%221%22%3E%3CmxGeometry%20x%3D%22690%22%20y%3D%22400%22%20width%3D%22180%22%20height%3D%2240%22%20as%3D%22geometry%22%2F%3E%3C%2FmxCell%3E%3C%2Froot%3E%3C%2FmxGraphModel%3E&lt;/span&gt;&lt;span style=&quot;color: rgba(0 , 0 , 0 , 0) ; font-family: monospace ; font-size: 0px&quot;&gt;%3CmxGraphModel%3E%3Croot%3E%3CmxCell%20id%3D%220%22%2F%3E%3CmxCell%20id%3D%221%22%20parent%3D%220%22%2F%3E%3CmxCell%20id%3D%222%22%20value%3D%22Consome%20a%20Palavra%22%20style%3D%22rounded%3D0%3BwhiteSpace%3Dwrap%3Bhtml%3D1%3B%22%20vertex%3D%221%22%20parent%3D%221%22%3E%3CmxGeometry%20x%3D%22690%22%20y%3D%22400%22%20width%3D%22180%22%20height%3D%2240%22%20as%3D%22geometry%22%2F%3E%3C%2FmxCell%3E%3C%2Froot%3E%3C%2FmxGraphModel%3E&lt;/span&gt;&lt;span style=&quot;background-color: transparent ; font-family: inherit ; font-style: inherit ; font-weight: inherit ; font-size: 13px ; text-align: left&quot;&gt;^[a-zA-Z]&amp;nbsp; &amp;nbsp; &amp;nbsp; &amp;nbsp; &amp;nbsp;0&lt;/span&gt;" style="rounded=0;whiteSpace=wrap;html=1;" vertex="1" parent="1">
          <mxGeometry x="440" y="475" width="180" height="40" as="geometry" />
        </mxCell>
        <mxCell id="wmtD4q_ZMgyU7GBEmReD-24" value="simbolos =&amp;nbsp;&lt;span style=&quot;background-color: transparent ; font-family: inherit ; font-style: inherit ; font-weight: inherit ; font-size: 13px ; text-align: left&quot;&gt;/[-!$%^&amp;amp;*()_+|~=&lt;/span&gt;&lt;span class=&quot;hljs-string&quot; style=&quot;background-color: transparent ; font-family: inherit ; font-style: inherit ; font-variant: inherit ; font-weight: inherit ; font-size: 13px ; text-align: left ; margin: 0px ; padding: 0px ; border: 0px ; font-stretch: inherit ; line-height: inherit ; vertical-align: baseline ; box-sizing: inherit&quot;&gt;`{}\[\]:&quot;;&#39;&amp;lt;&amp;gt;?,.\/]/&amp;nbsp; &amp;nbsp; &amp;nbsp; &amp;nbsp; &amp;nbsp; &amp;nbsp; 0&lt;/span&gt;" style="rounded=0;whiteSpace=wrap;html=1;" vertex="1" parent="1">
          <mxGeometry x="930" y="475" width="210" height="60" as="geometry" />
        </mxCell>
        <mxCell id="wmtD4q_ZMgyU7GBEmReD-25" value="Proxima palavra" style="rounded=0;whiteSpace=wrap;html=1;" vertex="1" parent="1">
          <mxGeometry x="945" y="560" width="180" height="40" as="geometry" />
        </mxCell>
        <mxCell id="wmtD4q_ZMgyU7GBEmReD-27" value="" style="endArrow=none;html=1;rounded=0;exitX=0.5;exitY=0;exitDx=0;exitDy=0;entryX=0.5;entryY=1;entryDx=0;entryDy=0;" edge="1" parent="1" source="wmtD4q_ZMgyU7GBEmReD-24" target="wmtD4q_ZMgyU7GBEmReD-20">
          <mxGeometry width="50" height="50" relative="1" as="geometry">
            <mxPoint x="790" y="410" as="sourcePoint" />
            <mxPoint x="790" y="360" as="targetPoint" />
          </mxGeometry>
        </mxCell>
        <mxCell id="wmtD4q_ZMgyU7GBEmReD-28" value="" style="endArrow=none;html=1;rounded=0;exitX=0.5;exitY=0;exitDx=0;exitDy=0;entryX=0.5;entryY=1;entryDx=0;entryDy=0;" edge="1" parent="1" source="wmtD4q_ZMgyU7GBEmReD-25" target="wmtD4q_ZMgyU7GBEmReD-24">
          <mxGeometry width="50" height="50" relative="1" as="geometry">
            <mxPoint x="870" y="415" as="sourcePoint" />
            <mxPoint x="870" y="365" as="targetPoint" />
          </mxGeometry>
        </mxCell>
        <mxCell id="wmtD4q_ZMgyU7GBEmReD-30" value="" style="endArrow=none;html=1;rounded=0;exitX=0.5;exitY=1;exitDx=0;exitDy=0;entryX=0.5;entryY=0;entryDx=0;entryDy=0;" edge="1" parent="1" source="wmtD4q_ZMgyU7GBEmReD-20" target="wmtD4q_ZMgyU7GBEmReD-23">
          <mxGeometry width="50" height="50" relative="1" as="geometry">
            <mxPoint x="640" y="180" as="sourcePoint" />
            <mxPoint x="550" y="230" as="targetPoint" />
          </mxGeometry>
        </mxCell>
        <mxCell id="wmtD4q_ZMgyU7GBEmReD-32" value="Palíndrome?" style="rounded=0;whiteSpace=wrap;html=1;" vertex="1" parent="1">
          <mxGeometry x="440" y="565" width="180" height="40" as="geometry" />
        </mxCell>
        <mxCell id="wmtD4q_ZMgyU7GBEmReD-33" value="" style="endArrow=none;html=1;rounded=0;exitX=0.5;exitY=1;exitDx=0;exitDy=0;entryX=0.5;entryY=0;entryDx=0;entryDy=0;" edge="1" parent="1" source="wmtD4q_ZMgyU7GBEmReD-23" target="wmtD4q_ZMgyU7GBEmReD-32">
          <mxGeometry width="50" height="50" relative="1" as="geometry">
            <mxPoint x="720" y="255" as="sourcePoint" />
            <mxPoint x="720" y="305" as="targetPoint" />
          </mxGeometry>
        </mxCell>
        <mxCell id="wmtD4q_ZMgyU7GBEmReD-36" value="Fim do arquivo&amp;nbsp; &amp;nbsp; &amp;nbsp; 0" style="rounded=0;whiteSpace=wrap;html=1;" vertex="1" parent="1">
          <mxGeometry x="690" y="475" width="180" height="40" as="geometry" />
        </mxCell>
        <mxCell id="wmtD4q_ZMgyU7GBEmReD-37" value="Proxima palavra&amp;nbsp; &amp;nbsp; &amp;nbsp; 0" style="rounded=0;whiteSpace=wrap;html=1;" vertex="1" parent="1">
          <mxGeometry x="344" y="630" width="140" height="40" as="geometry" />
        </mxCell>
        <mxCell id="wmtD4q_ZMgyU7GBEmReD-38" value="" style="endArrow=none;html=1;rounded=0;exitX=0.5;exitY=0;exitDx=0;exitDy=0;entryX=0.5;entryY=1;entryDx=0;entryDy=0;" edge="1" parent="1" source="wmtD4q_ZMgyU7GBEmReD-37" target="wmtD4q_ZMgyU7GBEmReD-32">
          <mxGeometry width="50" height="50" relative="1" as="geometry">
            <mxPoint x="790" y="410" as="sourcePoint" />
            <mxPoint x="790" y="360" as="targetPoint" />
          </mxGeometry>
        </mxCell>
        <mxCell id="wmtD4q_ZMgyU7GBEmReD-40" value="" style="endArrow=none;html=1;rounded=0;entryX=0.5;entryY=0;entryDx=0;entryDy=0;" edge="1" parent="1" target="wmtD4q_ZMgyU7GBEmReD-36">
          <mxGeometry width="50" height="50" relative="1" as="geometry">
            <mxPoint x="780" y="440" as="sourcePoint" />
            <mxPoint x="780" y="480" as="targetPoint" />
          </mxGeometry>
        </mxCell>
        <mxCell id="wmtD4q_ZMgyU7GBEmReD-42" value="Print terminal" style="rounded=0;whiteSpace=wrap;html=1;" vertex="1" parent="1">
          <mxGeometry x="560" y="630" width="140" height="40" as="geometry" />
        </mxCell>
        <mxCell id="wmtD4q_ZMgyU7GBEmReD-43" value="" style="endArrow=none;html=1;rounded=0;exitX=0.5;exitY=0;exitDx=0;exitDy=0;entryX=0.5;entryY=1;entryDx=0;entryDy=0;" edge="1" parent="1" source="wmtD4q_ZMgyU7GBEmReD-42" target="wmtD4q_ZMgyU7GBEmReD-32">
          <mxGeometry width="50" height="50" relative="1" as="geometry">
            <mxPoint x="424" y="640" as="sourcePoint" />
            <mxPoint x="540" y="640" as="targetPoint" />
          </mxGeometry>
        </mxCell>
        <mxCell id="wmtD4q_ZMgyU7GBEmReD-44" value="Grava Arquivo" style="rounded=0;whiteSpace=wrap;html=1;" vertex="1" parent="1">
          <mxGeometry x="560" y="720" width="140" height="40" as="geometry" />
        </mxCell>
        <mxCell id="wmtD4q_ZMgyU7GBEmReD-45" value="" style="endArrow=none;html=1;rounded=0;exitX=0.5;exitY=0;exitDx=0;exitDy=0;entryX=0.5;entryY=1;entryDx=0;entryDy=0;" edge="1" parent="1" source="wmtD4q_ZMgyU7GBEmReD-44" target="wmtD4q_ZMgyU7GBEmReD-42">
          <mxGeometry width="50" height="50" relative="1" as="geometry">
            <mxPoint x="790" y="410" as="sourcePoint" />
            <mxPoint x="790" y="360" as="targetPoint" />
          </mxGeometry>
        </mxCell>
      </root>
    </mxGraphModel>
  </diagram>
</mxfile>
